<svg width="46" height="46" viewBox="0 0 46 46" fill="none" xmlns="http://www.w3.org/2000/svg">
<path fill-rule="evenodd" clip-rule="evenodd" d="M3.4693 29.3621L4.57993 25.4671C4.57993 25.4671 2.17285 21.0239 3.12701 15.9893C3.12701 15.9893 4.14033 10.6426 8.43764 7.30375C8.43764 7.30375 12.7349 3.96492 18.1663 4.30446C18.1663 4.30446 23.5976 4.64399 27.4456 8.49202C27.4456 8.49202 31.2937 12.3401 31.6332 17.7714C31.6332 17.7714 31.9727 23.2027 28.6339 27.5C28.6339 27.5 25.2951 31.7973 19.9483 32.8106C19.9483 32.8106 14.9137 33.7648 10.4706 31.3577L6.57557 32.4683C6.57557 32.4683 5.91358 32.6545 5.25342 32.4819C5.25342 32.4819 4.59326 32.3094 4.11077 31.8269C4.11077 31.8269 3.62828 31.3444 3.45573 30.6842C3.45573 30.6842 3.28317 30.0241 3.46785 29.3672L3.4693 29.3621ZM10.2614 28.4278L6.41235 29.5253L7.50988 25.6762C7.61826 25.2961 7.56536 24.8882 7.36363 24.5483C7.36363 24.5483 5.14082 20.8034 5.95173 16.5247C5.95173 16.5247 6.76264 12.2459 10.2016 9.57404C10.2016 9.57404 13.6405 6.90214 17.9869 7.17386C17.9869 7.17386 22.3333 7.44557 25.4127 10.525C25.4127 10.525 28.4921 13.6043 28.7638 17.9507C28.7638 17.9507 29.0355 22.2972 26.3636 25.7361C26.3636 25.7361 23.6917 29.175 19.413 29.9859C19.413 29.9859 15.1342 30.7968 11.3893 28.574C11.0495 28.3723 10.6415 28.3194 10.2614 28.4278Z" fill="#BC29A4"/>
<path d="M36.4771 15.1793C33.2936 13.1551 29.5263 12.9574 29.5263 12.9574C29.5012 12.9561 29.4761 12.9554 29.451 12.9554C29.3884 12.9554 29.3259 12.9595 29.2638 12.9676C28.5767 13.0578 28.0518 13.6255 28.0154 14.3175C28.0141 14.3426 28.0135 14.3678 28.0135 14.3929C28.0135 14.4555 28.0175 14.518 28.0257 14.58C28.1159 15.2671 28.6835 15.7921 29.3756 15.8284C32.3885 15.9866 34.9345 17.6054 34.9345 17.6054C37.4804 19.2243 38.9018 21.8855 38.9018 21.8855C40.3231 24.5468 40.2525 27.5631 40.2525 27.5631C40.182 30.5793 38.6379 33.1712 38.6379 33.1712C38.4352 33.5115 38.3818 33.9203 38.4904 34.3011L39.588 38.1502L35.7389 37.0527C35.3723 36.9481 34.9791 36.9935 34.6459 37.1789L34.6099 37.1996L34.6074 37.2011C32.3887 38.5199 29.8189 38.7622 29.8189 38.7622C27.2476 39.0047 24.8202 38.1229 24.8202 38.1229C22.3928 37.241 20.5767 35.4047 20.5767 35.4047C18.7607 33.5683 17.9059 31.1312 17.9059 31.1312C17.7797 30.7714 17.5158 30.4765 17.1721 30.3114C16.9778 30.218 16.765 30.1695 16.5494 30.1695L16.5218 30.1697C16.3691 30.1727 16.2178 30.1999 16.0736 30.2505C15.7139 30.3767 15.419 30.6406 15.2538 30.9842C15.1604 31.1785 15.1119 31.3914 15.1119 31.607L15.1122 31.6346C15.1151 31.7873 15.1424 31.9386 15.1929 32.0827C16.2617 35.1301 18.5325 37.4262 18.5325 37.4262C20.8033 39.7224 23.8385 40.8251 23.8385 40.8251C26.8738 41.9277 30.0888 41.6245 30.0888 41.6245C32.9875 41.3511 35.529 39.9824 35.529 39.9824L39.4299 41.0947C40.0867 41.2794 40.7469 41.1068 40.7469 41.1068C41.4071 40.9343 41.8895 40.4518 41.8895 40.4518C42.372 39.9693 42.5446 39.3091 42.5446 39.3091C42.7171 38.649 42.531 37.987 42.531 37.987L41.4204 34.0921C43.046 31.0836 43.1268 27.6303 43.1268 27.6303C43.215 23.8588 41.4377 20.5312 41.4377 20.5312C39.6605 17.2035 36.4771 15.1793 36.4771 15.1793Z" fill="#BC29A4"/>
</svg>
