<svg width="170" height="44" viewBox="0 0 170 44" fill="none" xmlns="http://www.w3.org/2000/svg">
<path d="M6 20.6666C9.33333 19.3333 11.3333 22 14 27.3333C14 19.3333 22.6667 8.66663 29.3333 2.66663" stroke="#BC29A4" stroke-width="2.66667"/>
<path d="M43.528 9.836H50.008V11.366H43.528V9.836ZM43.69 15.434H51.034V17H41.89V4.4H50.782V5.966H43.69V15.434ZM58.7906 7.37C59.5706 7.37 60.2546 7.52 60.8426 7.82C61.4426 8.12 61.9106 8.576 62.2466 9.188C62.5826 9.8 62.7506 10.574 62.7506 11.51V17H61.0226V11.708C61.0226 10.784 60.7946 10.088 60.3386 9.62C59.8946 9.152 59.2646 8.918 58.4486 8.918C57.8366 8.918 57.3026 9.038 56.8466 9.278C56.3906 9.518 56.0366 9.872 55.7846 10.34C55.5446 10.808 55.4246 11.39 55.4246 12.086V17H53.6966V7.46H55.3526V10.034L55.0826 9.35C55.3946 8.726 55.8746 8.24 56.5226 7.892C57.1706 7.544 57.9266 7.37 58.7906 7.37ZM66.2005 17V6.614C66.2005 5.678 66.4705 4.934 67.0105 4.382C67.5625 3.818 68.3425 3.536 69.3505 3.536C69.7225 3.536 70.0765 3.584 70.4125 3.68C70.7605 3.764 71.0545 3.902 71.2945 4.094L70.7725 5.408C70.5925 5.264 70.3885 5.156 70.1605 5.084C69.9325 5 69.6925 4.958 69.4405 4.958C68.9365 4.958 68.5525 5.102 68.2885 5.39C68.0245 5.666 67.8925 6.08 67.8925 6.632V7.91L67.9285 8.702V17H66.2005ZM64.5805 8.882V7.46H70.6645V8.882H64.5805ZM76.2396 17.108C75.2796 17.108 74.4276 16.898 73.6836 16.478C72.9396 16.058 72.3516 15.482 71.9196 14.75C71.4876 14.006 71.2716 13.166 71.2716 12.23C71.2716 11.282 71.4876 10.442 71.9196 9.71C72.3516 8.978 72.9396 8.408 73.6836 8C74.4276 7.58 75.2796 7.37 76.2396 7.37C77.1876 7.37 78.0336 7.58 78.7776 8C79.5336 8.408 80.1216 8.978 80.5416 9.71C80.9736 10.43 81.1896 11.27 81.1896 12.23C81.1896 13.178 80.9736 14.018 80.5416 14.75C80.1216 15.482 79.5336 16.058 78.7776 16.478C78.0336 16.898 77.1876 17.108 76.2396 17.108ZM76.2396 15.596C76.8516 15.596 77.3976 15.458 77.8776 15.182C78.3696 14.906 78.7536 14.516 79.0296 14.012C79.3056 13.496 79.4436 12.902 79.4436 12.23C79.4436 11.546 79.3056 10.958 79.0296 10.466C78.7536 9.962 78.3696 9.572 77.8776 9.296C77.3976 9.02 76.8516 8.882 76.2396 8.882C75.6276 8.882 75.0816 9.02 74.6016 9.296C74.1216 9.572 73.7376 9.962 73.4496 10.466C73.1616 10.958 73.0176 11.546 73.0176 12.23C73.0176 12.902 73.1616 13.496 73.4496 14.012C73.7376 14.516 74.1216 14.906 74.6016 15.182C75.0816 15.458 75.6276 15.596 76.2396 15.596ZM87.5214 17.108C86.5974 17.108 85.7694 16.904 85.0374 16.496C84.3174 16.088 83.7474 15.518 83.3274 14.786C82.9074 14.054 82.6974 13.202 82.6974 12.23C82.6974 11.258 82.9074 10.412 83.3274 9.692C83.7474 8.96 84.3174 8.39 85.0374 7.982C85.7694 7.574 86.5974 7.37 87.5214 7.37C88.3494 7.37 89.0874 7.55 89.7354 7.91C90.3834 8.27 90.8934 8.81 91.2654 9.53C91.6494 10.25 91.8414 11.15 91.8414 12.23C91.8414 13.31 91.6434 14.21 91.2474 14.93C90.8634 15.65 90.3474 16.196 89.6994 16.568C89.0514 16.928 88.3254 17.108 87.5214 17.108ZM87.6654 15.596C88.2654 15.596 88.8054 15.458 89.2854 15.182C89.7774 14.906 90.1614 14.516 90.4374 14.012C90.7254 13.496 90.8694 12.902 90.8694 12.23C90.8694 11.546 90.7254 10.958 90.4374 10.466C90.1614 9.962 89.7774 9.572 89.2854 9.296C88.8054 9.02 88.2654 8.882 87.6654 8.882C87.0534 8.882 86.5074 9.02 86.0274 9.296C85.5474 9.572 85.1634 9.962 84.8754 10.466C84.5874 10.958 84.4434 11.546 84.4434 12.23C84.4434 12.902 84.5874 13.496 84.8754 14.012C85.1634 14.516 85.5474 14.906 86.0274 15.182C86.5074 15.458 87.0534 15.596 87.6654 15.596ZM90.8514 20.492V14.462L91.0314 12.248L90.9234 10.034V7.46H92.5794V20.492H90.8514ZM99.8629 17.108C99.0469 17.108 98.3269 16.958 97.7029 16.658C97.0909 16.358 96.6109 15.902 96.2629 15.29C95.9269 14.666 95.7589 13.886 95.7589 12.95V7.46H97.4869V12.752C97.4869 13.688 97.7089 14.39 98.1529 14.858C98.6089 15.326 99.2449 15.56 100.061 15.56C100.661 15.56 101.183 15.44 101.627 15.2C102.071 14.948 102.413 14.588 102.653 14.12C102.893 13.64 103.013 13.064 103.013 12.392V7.46H104.741V17H103.103V14.426L103.373 15.11C103.061 15.746 102.593 16.238 101.969 16.586C101.345 16.934 100.643 17.108 99.8629 17.108ZM112.279 17.108C111.259 17.108 110.359 16.898 109.579 16.478C108.811 16.058 108.211 15.482 107.779 14.75C107.359 14.018 107.149 13.178 107.149 12.23C107.149 11.282 107.353 10.442 107.761 9.71C108.181 8.978 108.751 8.408 109.471 8C110.203 7.58 111.025 7.37 111.937 7.37C112.861 7.37 113.677 7.574 114.385 7.982C115.093 8.39 115.645 8.966 116.041 9.71C116.449 10.442 116.653 11.3 116.653 12.284C116.653 12.356 116.647 12.44 116.635 12.536C116.635 12.632 116.629 12.722 116.617 12.806H108.499V11.564H115.717L115.015 11.996C115.027 11.384 114.901 10.838 114.637 10.358C114.373 9.878 114.007 9.506 113.539 9.242C113.083 8.966 112.549 8.828 111.937 8.828C111.337 8.828 110.803 8.966 110.335 9.242C109.867 9.506 109.501 9.884 109.237 10.376C108.973 10.856 108.841 11.408 108.841 12.032V12.32C108.841 12.956 108.985 13.526 109.273 14.03C109.573 14.522 109.987 14.906 110.515 15.182C111.043 15.458 111.649 15.596 112.333 15.596C112.897 15.596 113.407 15.5 113.863 15.308C114.331 15.116 114.739 14.828 115.087 14.444L116.041 15.56C115.609 16.064 115.069 16.448 114.421 16.712C113.785 16.976 113.071 17.108 112.279 17.108ZM41.89 39V26.4H43.69V39H41.89ZM52.3043 29.37C53.0843 29.37 53.7683 29.52 54.3563 29.82C54.9563 30.12 55.4243 30.576 55.7603 31.188C56.0963 31.8 56.2643 32.574 56.2643 33.51V39H54.5363V33.708C54.5363 32.784 54.3083 32.088 53.8523 31.62C53.4083 31.152 52.7783 30.918 51.9623 30.918C51.3503 30.918 50.8163 31.038 50.3603 31.278C49.9043 31.518 49.5503 31.872 49.2983 32.34C49.0583 32.808 48.9383 33.39 48.9383 34.086V39H47.2103V29.46H48.8663V32.034L48.5963 31.35C48.9083 30.726 49.3883 30.24 50.0363 29.892C50.6843 29.544 51.4403 29.37 52.3043 29.37ZM62.7382 39.108C61.7782 39.108 61.0342 38.85 60.5062 38.334C59.9782 37.818 59.7142 37.08 59.7142 36.12V27.372H61.4422V36.048C61.4422 36.564 61.5682 36.96 61.8202 37.236C62.0842 37.512 62.4562 37.65 62.9362 37.65C63.4762 37.65 63.9262 37.5 64.2862 37.2L64.8262 38.442C64.5622 38.67 64.2442 38.838 63.8722 38.946C63.5122 39.054 63.1342 39.108 62.7382 39.108ZM58.0942 30.882V29.46H64.1782V30.882H58.0942ZM70.8469 39.108C69.8269 39.108 68.9269 38.898 68.1469 38.478C67.3789 38.058 66.7789 37.482 66.3469 36.75C65.9269 36.018 65.7169 35.178 65.7169 34.23C65.7169 33.282 65.9209 32.442 66.3289 31.71C66.7489 30.978 67.3189 30.408 68.0389 30C68.7709 29.58 69.5929 29.37 70.5049 29.37C71.4289 29.37 72.2449 29.574 72.9529 29.982C73.6609 30.39 74.2129 30.966 74.6089 31.71C75.0169 32.442 75.2209 33.3 75.2209 34.284C75.2209 34.356 75.2149 34.44 75.2029 34.536C75.2029 34.632 75.1969 34.722 75.1849 34.806H67.0669V33.564H74.2849L73.5829 33.996C73.5949 33.384 73.4689 32.838 73.2049 32.358C72.9409 31.878 72.5749 31.506 72.1069 31.242C71.6509 30.966 71.1169 30.828 70.5049 30.828C69.9049 30.828 69.3709 30.966 68.9029 31.242C68.4349 31.506 68.0689 31.884 67.8049 32.376C67.5409 32.856 67.4089 33.408 67.4089 34.032V34.32C67.4089 34.956 67.5529 35.526 67.8409 36.03C68.1409 36.522 68.5549 36.906 69.0829 37.182C69.6109 37.458 70.2169 37.596 70.9009 37.596C71.4649 37.596 71.9749 37.5 72.4309 37.308C72.8989 37.116 73.3069 36.828 73.6549 36.444L74.6089 37.56C74.1769 38.064 73.6369 38.448 72.9889 38.712C72.3529 38.976 71.6389 39.108 70.8469 39.108ZM77.6204 39V29.46H79.2764V32.052L79.1144 31.404C79.3784 30.744 79.8224 30.24 80.4464 29.892C81.0704 29.544 81.8384 29.37 82.7504 29.37V31.044C82.6784 31.032 82.6064 31.026 82.5344 31.026C82.4744 31.026 82.4144 31.026 82.3544 31.026C81.4304 31.026 80.6984 31.302 80.1584 31.854C79.6184 32.406 79.3484 33.204 79.3484 34.248V39H77.6204ZM90.0991 39V36.984L90.0091 36.606V33.168C90.0091 32.436 89.7931 31.872 89.3611 31.476C88.9411 31.068 88.3051 30.864 87.4531 30.864C86.8891 30.864 86.3371 30.96 85.7971 31.152C85.2571 31.332 84.8011 31.578 84.4291 31.89L83.7091 30.594C84.2011 30.198 84.7891 29.898 85.4731 29.694C86.1691 29.478 86.8951 29.37 87.6511 29.37C88.9591 29.37 89.9671 29.688 90.6751 30.324C91.3831 30.96 91.7371 31.932 91.7371 33.24V39H90.0991ZM86.9671 39.108C86.2591 39.108 85.6351 38.988 85.0951 38.748C84.5671 38.508 84.1591 38.178 83.8711 37.758C83.5831 37.326 83.4391 36.84 83.4391 36.3C83.4391 35.784 83.5591 35.316 83.7991 34.896C84.0511 34.476 84.4531 34.14 85.0051 33.888C85.5691 33.636 86.3251 33.51 87.2731 33.51H90.2971V34.752H87.3451C86.4811 34.752 85.8991 34.896 85.5991 35.184C85.2991 35.472 85.1491 35.82 85.1491 36.228C85.1491 36.696 85.3351 37.074 85.7071 37.362C86.0791 37.638 86.5951 37.776 87.2551 37.776C87.9031 37.776 88.4671 37.632 88.9471 37.344C89.4391 37.056 89.7931 36.636 90.0091 36.084L90.3511 37.272C90.1231 37.836 89.7211 38.286 89.1451 38.622C88.5691 38.946 87.8431 39.108 86.9671 39.108ZM99.0929 39.108C98.1209 39.108 97.2509 38.898 96.4829 38.478C95.7269 38.058 95.1329 37.482 94.7009 36.75C94.2689 36.018 94.0529 35.178 94.0529 34.23C94.0529 33.282 94.2689 32.442 94.7009 31.71C95.1329 30.978 95.7269 30.408 96.4829 30C97.2509 29.58 98.1209 29.37 99.0929 29.37C99.9569 29.37 100.725 29.544 101.397 29.892C102.081 30.228 102.609 30.732 102.981 31.404L101.667 32.25C101.355 31.782 100.971 31.44 100.515 31.224C100.071 30.996 99.5909 30.882 99.0749 30.882C98.4509 30.882 97.8929 31.02 97.4009 31.296C96.9089 31.572 96.5189 31.962 96.2309 32.466C95.9429 32.958 95.7989 33.546 95.7989 34.23C95.7989 34.914 95.9429 35.508 96.2309 36.012C96.5189 36.516 96.9089 36.906 97.4009 37.182C97.8929 37.458 98.4509 37.596 99.0749 37.596C99.5909 37.596 100.071 37.488 100.515 37.272C100.971 37.044 101.355 36.696 101.667 36.228L102.981 37.056C102.609 37.716 102.081 38.226 101.397 38.586C100.725 38.934 99.9569 39.108 99.0929 39.108ZM108.617 39.108C107.657 39.108 106.913 38.85 106.385 38.334C105.857 37.818 105.593 37.08 105.593 36.12V27.372H107.321V36.048C107.321 36.564 107.447 36.96 107.699 37.236C107.963 37.512 108.335 37.65 108.815 37.65C109.355 37.65 109.805 37.5 110.165 37.2L110.705 38.442C110.441 38.67 110.123 38.838 109.751 38.946C109.391 39.054 109.013 39.108 108.617 39.108ZM103.973 30.882V29.46H110.057V30.882H103.973ZM112.794 39V29.46H114.522V39H112.794ZM113.658 27.624C113.322 27.624 113.04 27.516 112.812 27.3C112.596 27.084 112.488 26.82 112.488 26.508C112.488 26.184 112.596 25.914 112.812 25.698C113.04 25.482 113.322 25.374 113.658 25.374C113.994 25.374 114.27 25.482 114.486 25.698C114.714 25.902 114.828 26.16 114.828 26.472C114.828 26.796 114.72 27.072 114.504 27.3C114.288 27.516 114.006 27.624 113.658 27.624ZM120.324 39L116.148 29.46H117.948L121.656 38.1H120.792L124.572 29.46H126.264L122.088 39H120.324ZM131.699 39.108C130.739 39.108 129.887 38.898 129.143 38.478C128.399 38.058 127.811 37.482 127.379 36.75C126.947 36.006 126.731 35.166 126.731 34.23C126.731 33.282 126.947 32.442 127.379 31.71C127.811 30.978 128.399 30.408 129.143 30C129.887 29.58 130.739 29.37 131.699 29.37C132.647 29.37 133.493 29.58 134.237 30C134.993 30.408 135.581 30.978 136.001 31.71C136.433 32.43 136.649 33.27 136.649 34.23C136.649 35.178 136.433 36.018 136.001 36.75C135.581 37.482 134.993 38.058 134.237 38.478C133.493 38.898 132.647 39.108 131.699 39.108ZM131.699 37.596C132.311 37.596 132.857 37.458 133.337 37.182C133.829 36.906 134.213 36.516 134.489 36.012C134.765 35.496 134.903 34.902 134.903 34.23C134.903 33.546 134.765 32.958 134.489 32.466C134.213 31.962 133.829 31.572 133.337 31.296C132.857 31.02 132.311 30.882 131.699 30.882C131.087 30.882 130.541 31.02 130.061 31.296C129.581 31.572 129.197 31.962 128.909 32.466C128.621 32.958 128.477 33.546 128.477 34.23C128.477 34.902 128.621 35.496 128.909 36.012C129.197 36.516 129.581 36.906 130.061 37.182C130.541 37.458 131.087 37.596 131.699 37.596Z" fill="#FEFEFE"/>
</svg>
