<svg width="46" height="46" viewBox="0 0 46 46" fill="none" xmlns="http://www.w3.org/2000/svg">
<path fill-rule="evenodd" clip-rule="evenodd" d="M44.7903 22.4724C44.7903 22.4724 44.4127 22.9122 43.8943 23.1713L43.8922 23.1723L39.453 25.383C38.7522 25.7319 37.9011 25.456 37.5384 24.7623L31.7884 13.7654L31.7765 13.7422C31.4214 13.0321 31.7093 12.1686 32.4194 11.8136L36.9016 9.5725C36.9016 9.5725 37.9506 9.0378 39.0717 9.3974C39.0717 9.3974 40.1928 9.75701 40.7333 10.7987L45.15 19.2552C45.15 19.2552 45.4216 19.7685 45.4727 20.3471C45.4727 20.3471 45.5237 20.9257 45.3461 21.4787C45.3461 21.4787 45.1686 22.0317 44.7903 22.4724ZM42.6088 20.5997L38.1913 12.1419L35.0144 13.7304L39.433 22.1811L42.6088 20.5997Z" fill="#BC29A4"/>
<path fill-rule="evenodd" clip-rule="evenodd" d="M14.2116 13.5668L8.46159 24.5816C8.09831 25.2775 7.24391 25.5533 6.54232 25.2011L2.10404 22.9729C2.10404 22.9729 1.59517 22.7236 1.21498 22.2851C1.21498 22.2851 0.834776 21.8465 0.655839 21.2944C0.655839 21.2944 0.476903 20.7422 0.527601 20.164C0.527601 20.164 0.578298 19.5858 0.850592 19.0732L5.26622 10.6188C5.26622 10.6188 5.80452 9.58418 6.91421 9.21777C6.91421 9.21777 8.02391 8.85136 9.07454 9.36307L13.5801 11.6158C14.2902 11.9708 14.5781 12.8343 14.223 13.5444L14.2116 13.5668ZM7.81564 11.9478L10.986 13.5331L6.56772 21.9969L3.39812 20.4057L7.81457 11.9498L7.81564 11.9478Z" fill="#BC29A4"/>
<path d="M8.072 22.7834L17.9007 30.4559L17.9223 30.473L28.2717 33.0604C28.2887 33.0623 28.3055 33.0577 28.3055 33.0577C28.3221 33.0531 28.3356 33.0429 28.3356 33.0429L34.88 26.4985L37.7175 23.1644C37.9646 22.874 38.317 22.6937 38.697 22.6632C38.7353 22.6601 38.7738 22.6585 38.8123 22.6585C39.1537 22.6585 39.4839 22.7801 39.7439 23.0013C40.0343 23.2484 40.2146 23.6007 40.2451 23.9808C40.2481 24.0182 40.2497 24.0557 40.2498 24.0932L40.2498 24.096C40.2498 24.4374 40.1282 24.7677 39.907 25.0277L37.032 28.4058C37.007 28.4351 36.9809 28.4634 36.9537 28.4906L30.3412 35.1031C30.3299 35.1145 30.3183 35.1257 30.3066 35.1366C29.774 35.6346 29.0712 35.8288 29.0712 35.8288C28.3684 36.023 27.6557 35.8691 27.6557 35.8691C27.6406 35.8658 27.6255 35.8623 27.6105 35.8586L17.1886 33.2531L17.1513 33.2433C16.574 33.0823 16.1316 32.7221 16.1316 32.7221L6.30291 25.0496C5.95374 24.7771 5.74976 24.3591 5.74976 23.9164C5.74976 23.6369 5.83119 23.3636 5.98408 23.1297C6.00605 23.0961 6.02942 23.0635 6.05413 23.0318C6.32654 22.6828 6.74455 22.4789 7.18726 22.4789C7.46666 22.4789 7.74001 22.5603 7.97387 22.7132C8.00748 22.7351 8.04015 22.7585 8.072 22.7834Z" fill="#BC29A4"/>
<path d="M25.7514 14.5368H33.0622C33.8561 14.5368 34.4997 13.8932 34.4997 13.0993C34.4997 12.3054 33.8561 11.6618 33.0622 11.6618H25.7489C25.1849 11.6598 24.6585 11.876 24.6585 11.876C24.1321 12.0922 23.7287 12.4936 23.7287 12.4936L16.6838 19.5206C16.2355 19.9806 16.023 20.5646 16.023 20.5646C15.8104 21.1487 15.8565 21.7685 15.8565 21.7685C15.9026 22.3884 16.1993 22.9346 16.1993 22.9346C16.4959 23.4808 16.9907 23.8569 16.9907 23.8569L17.9617 24.5942C19.8885 26.0324 22.281 26.0324 22.281 26.0324C24.6735 26.0324 26.5908 24.6013 26.5908 24.6013L28.0441 23.5113L35.0914 28.6367C35.3374 28.8156 35.6334 28.9118 35.9372 28.9118C35.9627 28.9118 35.9882 28.9111 36.0136 28.9098C36.446 28.8868 36.8451 28.6701 37.0998 28.3198C37.2785 28.0741 37.3747 27.7781 37.3747 27.4743C37.3747 27.4489 37.374 27.4234 37.3727 27.398C37.3497 26.9655 37.133 26.5665 36.7827 26.3118L28.8765 20.5618C28.3661 20.1906 27.6733 20.1957 27.1685 20.5743L24.8712 22.2973C23.7189 23.1573 22.281 23.1573 22.281 23.1573C20.8431 23.1573 19.7002 22.3044 19.7002 22.3044L18.7307 21.5683C18.7276 21.5659 18.7257 21.5625 18.7257 21.5625C18.7239 21.5591 18.7236 21.5553 18.7236 21.5553C18.7233 21.5514 18.7247 21.5478 18.7247 21.5478C18.7239 21.5472 18.7165 21.5537 18.7165 21.5537L25.7514 14.5368Z" fill="#BC29A4"/>
<path d="M28.8745 14.4084C29.0611 14.493 29.2636 14.5368 29.4685 14.5368C29.4931 14.5368 29.5176 14.5362 29.5421 14.5349C30.0789 14.5074 30.5555 14.1827 30.7776 13.6933C30.8622 13.5067 30.906 13.3042 30.906 13.0993L30.9058 13.0757C30.9031 12.911 30.8721 12.7479 30.8142 12.5937C30.6801 12.2368 30.4097 11.9478 30.0625 11.7903L23.8453 8.96918C22.8815 8.53357 21.8668 8.82454 21.8668 8.82454L12.6419 11.5218C12.2757 11.6289 11.9673 11.8769 11.7842 12.2113C11.6683 12.423 11.6076 12.6604 11.6076 12.9017L11.6078 12.9246C11.6098 13.0534 11.6292 13.1814 11.6654 13.3051C11.8446 13.918 12.4066 14.3392 13.0451 14.3392L13.0533 14.3391C13.1871 14.3384 13.3201 14.3189 13.4485 14.2814L22.6593 11.5882L28.8745 14.4084Z" fill="#BC29A4"/>
<path d="M11.0041 31.9765C10.7427 31.7498 10.4083 31.625 10.0623 31.625C10.0282 31.625 9.99425 31.6262 9.96033 31.6286C9.58004 31.6557 9.22606 31.8327 8.97627 32.1207C8.74957 32.3821 8.62476 32.7165 8.62476 33.0625C8.62476 33.0965 8.62597 33.1305 8.62838 33.1644C8.65541 33.5447 8.83241 33.8987 9.12043 34.1485L13.1814 37.6704C13.6925 38.1273 14.379 38.2873 14.379 38.2873L19.7728 39.6492C19.8879 39.6783 20.0061 39.693 20.1248 39.693C20.1398 39.693 20.1549 39.6927 20.1699 39.6923C20.8112 39.6721 21.3615 39.2294 21.5185 38.6074C21.5476 38.4923 21.5623 38.3741 21.5623 38.2555C21.5623 38.2334 21.5618 38.2114 21.5607 38.1894C21.5498 37.9526 21.4806 37.7223 21.3591 37.5188C21.1638 37.1914 20.8463 36.9551 20.4767 36.8617L15.0681 35.4961L15.0601 35.4941L11.0041 31.9765Z" fill="#BC29A4"/>
</svg>
