<svg width="46" height="46" viewBox="0 0 46 46" fill="none" xmlns="http://www.w3.org/2000/svg">
<path d="M7.6665 29.7083C13.4165 27.7917 18.2082 28.75 22.9998 38.3333C23.9582 32.5833 26.8332 23.9583 29.7082 19.1667M36.4165 13.4167C35.3998 13.4167 34.4248 13.0128 33.7059 12.2939C32.987 11.575 32.5832 10.6 32.5832 9.58333C32.5832 8.56667 32.987 7.59165 33.7059 6.87276C34.4248 6.15387 35.3998 5.75 36.4165 5.75C37.4332 5.75 38.4082 6.15387 39.1271 6.87276C39.846 7.59165 40.2498 8.56667 40.2498 9.58333C40.2498 10.6 39.846 11.575 39.1271 12.2939C38.4082 13.0128 37.4332 13.4167 36.4165 13.4167Z" stroke="#BC29A4" stroke-width="3" stroke-linecap="round" stroke-linejoin="round"/>
</svg>
