<svg width="46" height="46" viewBox="0 0 46 46" fill="none" xmlns="http://www.w3.org/2000/svg">
<g clip-path="url(#clip0_2181_6650)">
<path d="M42.1665 22.9993H44.0832M22.9998 3.83268V1.91602M22.9998 44.0827V42.166M38.3332 38.3327L36.4165 36.416M38.3332 7.66602L36.4165 9.58268M7.6665 38.3327L9.58317 36.416M7.6665 7.66602L9.58317 9.58268M1.9165 22.9993H3.83317M19.0745 18.4434L22.0626 12.1088C22.1431 11.9275 22.2745 11.7733 22.4409 11.6652C22.6072 11.557 22.8014 11.4994 22.9998 11.4994C23.1983 11.4994 23.3925 11.557 23.5588 11.6652C23.7252 11.7733 23.8566 11.9275 23.9371 12.1088L26.9252 18.4434L33.6048 19.465C34.4615 19.5953 34.8027 20.6993 34.1836 21.3318L29.3498 26.2577L30.4902 33.2171C30.6378 34.1122 29.7408 34.7926 28.9741 34.3709L22.9998 31.0839L17.0256 34.3709C16.2589 34.7926 15.3619 34.1122 15.5095 33.2171L16.6499 26.2596L11.8161 21.3318C11.197 20.6993 11.5382 19.5953 12.3949 19.465L19.0745 18.4434Z" stroke="#BC29A4" stroke-width="3" stroke-linecap="round" stroke-linejoin="round"/>
</g>
<defs>
<clipPath id="clip0_2181_6650">
<rect width="46" height="46" fill="white"/>
</clipPath>
</defs>
</svg>
