<svg width="46" height="46" viewBox="0 0 46 46" fill="none" xmlns="http://www.w3.org/2000/svg">
<path d="M13.4167 26.8342C12.5801 26.8355 11.7538 27.0193 10.9955 27.3728C10.2372 27.7264 9.56521 28.2412 9.0264 28.8812C8.48759 29.5213 8.09496 30.2712 7.87589 31.0787C7.65683 31.8861 7.61661 32.7317 7.75806 33.5563C7.8995 34.3809 8.21919 35.1647 8.69482 35.853C9.17045 36.5413 9.79056 37.1176 10.5119 37.5415C11.2332 37.9654 12.0383 38.2268 12.8711 38.3074C13.7038 38.3881 14.5441 38.286 15.3334 38.0084" stroke="#BC29A4" stroke-width="3" stroke-linecap="round" stroke-linejoin="round"/>
<path d="M8.17258 29.9097C7.02558 29.3575 6.03413 28.5284 5.28771 27.4972C4.5413 26.4659 4.06341 25.2651 3.89719 24.003C3.73096 22.7409 3.88162 21.4572 4.33558 20.2679C4.78954 19.0786 5.5325 18.021 6.49742 17.1907M6.55492 17.0354C5.92633 16.0948 5.65083 14.9622 5.77717 13.8379C5.90352 12.7137 6.42357 11.6704 7.24525 10.8928C8.06694 10.1152 9.13726 9.65338 10.2667 9.58914C11.3962 9.52489 12.512 9.86235 13.4166 10.5418M13.8727 10.6664C13.567 10.0167 13.4111 9.30662 13.4167 8.58863C13.4223 7.87063 13.5892 7.16306 13.905 6.51823C14.2208 5.8734 14.6775 5.3078 15.2414 4.86322C15.8052 4.41864 16.4617 4.10646 17.1624 3.94975C17.8632 3.79304 18.5901 3.7958 19.2896 3.95785C19.9891 4.11989 20.6433 4.43706 21.2037 4.88592C21.7641 5.33478 22.2165 5.90385 22.5274 6.55106C22.8383 7.19828 22.9998 7.90709 22.9999 8.62511V38.3334C22.9999 39.3501 22.596 40.3251 21.8772 41.044C21.1583 41.7629 20.1832 42.1668 19.1666 42.1668C18.1499 42.1668 17.1749 41.7629 16.456 41.044C15.7371 40.3251 15.3332 39.3501 15.3332 38.3334M22.9999 13.4168C22.9999 14.9418 23.6057 16.4043 24.684 17.4826C25.7624 18.561 27.2249 19.1668 28.7499 19.1668M32.5832 26.8334C33.4199 26.8347 34.2462 27.0185 35.0045 27.3721C35.7628 27.7256 36.4348 28.2404 36.9736 28.8804C37.5124 29.5205 37.905 30.2704 38.1241 31.0779C38.3431 31.8854 38.3834 32.7309 38.2419 33.5555C38.1005 34.3801 37.7808 35.1639 37.3052 35.8523C36.8295 36.5406 36.2094 37.1168 35.4881 37.5407C34.7668 37.9646 33.9617 38.226 33.1289 38.3067C32.2962 38.3873 31.4558 38.2853 30.6666 38.0076" stroke="#BC29A4" stroke-width="3" stroke-linecap="round" stroke-linejoin="round"/>
<path d="M37.8273 29.9097C38.9743 29.3575 39.9658 28.5284 40.7122 27.4972C41.4586 26.4659 41.9365 25.2651 42.1027 24.003C42.269 22.7409 42.1183 21.4572 41.6643 20.2679C41.2104 19.0786 40.4674 18.021 39.5025 17.1907M39.445 17.0354C40.0736 16.0948 40.3491 14.9622 40.2227 13.8379C40.0964 12.7137 39.5763 11.6704 38.7547 10.8928C37.933 10.1152 36.8627 9.65338 35.7332 9.58914C34.6037 9.52489 33.4879 9.86235 32.5833 10.5418M23 8.62511C23.0001 7.90709 23.1616 7.19828 23.4725 6.55106C23.7834 5.90385 24.2358 5.33478 24.7962 4.88592C25.3567 4.43706 26.0108 4.11989 26.7103 3.95785C27.4098 3.7958 28.1368 3.79304 28.8375 3.94975C29.5382 4.10646 30.1947 4.41864 30.7585 4.86322C31.3224 5.3078 31.7791 5.8734 32.0949 6.51823C32.4107 7.16306 32.5776 7.87063 32.5832 8.58863C32.5888 9.30662 32.4329 10.0167 32.1272 10.6664M30.6667 38.3334C30.6667 39.3501 30.2628 40.3251 29.5439 41.044C28.825 41.7629 27.85 42.1668 26.8333 42.1668C25.8167 42.1668 24.8416 41.7629 24.1228 41.044C23.4039 40.3251 23 39.3501 23 38.3334" stroke="#BC29A4" stroke-width="3" stroke-linecap="round" stroke-linejoin="round"/>
</svg>
