<svg width="46" height="46" viewBox="0 0 46 46" fill="none" xmlns="http://www.w3.org/2000/svg">
<path d="M38.3332 33.7474C41.1967 32.6262 44.0832 30.0712 44.0832 24.9173C44.0832 17.2507 37.6949 15.334 34.4998 15.334C34.4998 11.5007 34.4998 3.83398 22.9998 3.83398C11.4998 3.83398 11.4998 11.5007 11.4998 15.334C8.30475 15.334 1.9165 17.2507 1.9165 24.9173C1.9165 30.0712 4.803 32.6262 7.6665 33.7474M31.4715 37.3507L28.0828 40.7394C26.6451 42.1767 24.6954 42.9841 22.6625 42.9841C20.6296 42.9841 18.6799 42.1767 17.2422 40.7394L16.5637 40.0628" stroke="#BC29A4" stroke-width="3" stroke-linecap="round" stroke-linejoin="round"/>
<path d="M14.5283 32.396L17.917 29.0074C18.6289 28.2954 19.4741 27.7307 20.4043 27.3453C21.3345 26.96 22.3314 26.7617 23.3383 26.7617C24.3451 26.7617 25.3421 26.96 26.2723 27.3453C27.2025 27.7307 28.0476 28.2954 28.7596 29.0074L29.4381 29.684M30.7951 42.0944L31.4717 37.3506L26.7279 38.0291L30.7951 42.0944Z" stroke="#BC29A4" stroke-width="3" stroke-linecap="round" stroke-linejoin="round"/>
<path d="M15.2069 27.6523L14.5303 32.3961L19.2721 31.7176L15.2069 27.6523Z" stroke="#BC29A4" stroke-width="3" stroke-linecap="round" stroke-linejoin="round"/>
</svg>
