<svg width="24" height="24" viewBox="0 0 24 24" fill="none" xmlns="http://www.w3.org/2000/svg">
<path d="M7.51 2H15.49C18.53 2 21 4.47 21 7.51V15.49C21 16.9513 20.4195 18.3528 19.3862 19.3862C18.3528 20.4195 16.9513 21 15.49 21H7.51C4.47 21 2 18.53 2 15.49V7.51C2 6.04866 2.58052 4.64717 3.61384 3.61384C4.64717 2.58052 6.04866 2 7.51 2ZM7.32 3.9C6.41296 3.9 5.54307 4.26032 4.90169 4.90169C4.26032 5.54307 3.9 6.41296 3.9 7.32V15.68C3.9 17.5705 5.4295 19.1 7.32 19.1H15.68C16.587 19.1 17.4569 18.7397 18.0983 18.0983C18.7397 17.4569 19.1 16.587 19.1 15.68V7.32C19.1 5.4295 17.5705 3.9 15.68 3.9H7.32ZM16.4875 5.325C16.8024 5.325 17.1045 5.45011 17.3272 5.67281C17.5499 5.89551 17.675 6.19756 17.675 6.5125C17.675 6.82744 17.5499 7.12949 17.3272 7.35219C17.1045 7.57489 16.8024 7.7 16.4875 7.7C16.1726 7.7 15.8705 7.57489 15.6478 7.35219C15.4251 7.12949 15.3 6.82744 15.3 6.5125C15.3 6.19756 15.4251 5.89551 15.6478 5.67281C15.8705 5.45011 16.1726 5.325 16.4875 5.325ZM11.5 6.75C12.7598 6.75 13.968 7.25044 14.8588 8.14124C15.7496 9.03204 16.25 10.2402 16.25 11.5C16.25 12.7598 15.7496 13.968 14.8588 14.8588C13.968 15.7496 12.7598 16.25 11.5 16.25C10.2402 16.25 9.03204 15.7496 8.14124 14.8588C7.25044 13.968 6.75 12.7598 6.75 11.5C6.75 10.2402 7.25044 9.03204 8.14124 8.14124C9.03204 7.25044 10.2402 6.75 11.5 6.75ZM11.5 8.65C10.7441 8.65 10.0192 8.95027 9.48475 9.48475C8.95027 10.0192 8.65 10.7441 8.65 11.5C8.65 12.2559 8.95027 12.9808 9.48475 13.5153C10.0192 14.0497 10.7441 14.35 11.5 14.35C12.2559 14.35 12.9808 14.0497 13.5153 13.5153C14.0497 12.9808 14.35 12.2559 14.35 11.5C14.35 10.7441 14.0497 10.0192 13.5153 9.48475C12.9808 8.95027 12.2559 8.65 11.5 8.65Z" fill="#FEFEFE"/>
</svg>
