<svg width="46" height="46" viewBox="0 0 46 46" fill="none" xmlns="http://www.w3.org/2000/svg">
<path d="M35.8946 29.0983C35.9229 28.9847 35.9375 28.8671 35.9375 28.75C35.9375 28.7264 35.9369 28.7028 35.9357 28.6793C35.9241 28.4426 35.8541 28.2124 35.732 28.0093C35.5355 27.6826 35.2173 27.4473 34.8474 27.3551C34.7338 27.3268 34.6171 27.3125 34.5 27.3125C34.4834 27.3125 34.4668 27.3128 34.4502 27.3134C33.809 27.3356 33.2601 27.7801 33.1051 28.4026L30.7341 37.9225L28.7542 36.6085C28.7515 36.6068 28.7499 36.6059 28.7499 36.6059L28.75 14.375C28.75 13.5811 28.1064 12.9375 27.3125 12.9375C26.5186 12.9375 25.875 13.5811 25.875 14.375L25.875 36.5892C25.8683 37.322 26.2152 37.9677 26.2152 37.9677C26.5621 38.6133 27.1645 39.004 27.1645 39.004L29.1377 40.3135C29.7206 40.7027 30.4171 40.7799 30.4171 40.7799C31.1137 40.8572 31.7676 40.6053 31.7676 40.6053C32.4216 40.3533 32.8863 39.8287 32.8863 39.8287C33.351 39.3041 33.523 38.6209 33.523 38.6209L35.8946 29.0983Z" fill="#BC29A4"/>
<path fill-rule="evenodd" clip-rule="evenodd" d="M27.3125 30.1876C27.3125 30.1876 26.7833 30.1876 25.8005 30.3013C25.8005 30.3013 23.7776 30.5354 21.6163 31.1232C21.6163 31.1232 14.6702 33.0125 9.02036 37.7458C9.02036 37.7458 8.37919 38.2764 7.55374 38.3825C7.55374 38.3825 6.72829 38.4885 5.97384 38.1372C5.97384 38.1372 5.21939 37.7859 4.76926 37.0859C4.76926 37.0859 4.31914 36.3859 4.3125 35.5423L4.31255 7.57151C4.31255 7.57151 4.31914 6.7393 4.76927 6.03931C4.76927 6.03931 5.21939 5.33931 5.97384 4.988C5.97384 4.988 6.72829 4.63669 7.55374 4.74272C7.55374 4.74272 8.37919 4.84875 9.02707 5.38491C9.02707 5.38491 14.6702 10.1126 21.6163 12.0019C21.6163 12.0019 23.7776 12.5898 25.8005 12.8239C25.8005 12.8239 26.7833 12.9375 27.3125 12.9375L34.5 12.9376C34.5 12.9376 38.0726 12.9376 40.5988 15.4638C40.5988 15.4638 43.125 17.99 43.125 21.5626C43.125 21.5626 43.125 25.1352 40.5988 27.6614C40.5988 27.6614 38.0726 30.1876 34.5 30.1876H27.3125ZM27.3125 27.3126L34.5 27.3125C34.5 27.3125 36.8817 27.3126 38.5659 25.6285C38.5659 25.6285 40.25 23.9443 40.25 21.5626C40.25 21.5626 40.25 19.1809 38.5659 17.4967C38.5659 17.4967 36.8817 15.8126 34.5 15.8126H27.3125C27.3125 15.8126 24.6722 15.8126 20.8618 14.7762C20.8618 14.7762 13.3113 12.7225 7.18745 7.59432L7.1875 35.5308C7.1875 35.5308 13.3072 30.4038 20.8618 28.349C20.8618 28.349 24.6722 27.3126 27.3125 27.3126Z" fill="#BC29A4"/>
</svg>
