<svg width="44" height="44" viewBox="0 0 44 44" fill="none" xmlns="http://www.w3.org/2000/svg">
<g opacity="0.5">
<path d="M41.6562 21.5C41.6577 19.9568 41.2794 18.437 40.5548 17.0745C39.8302 15.7121 38.7815 14.5488 37.5012 13.6873C36.2209 12.8258 34.7483 12.2925 33.2132 12.1345C31.6781 11.9765 30.1278 12.1986 28.6988 12.7812C27.2698 13.3638 26.0062 14.289 25.0192 15.4753C24.0322 16.6615 23.3522 18.0724 23.0393 19.5835C22.7263 21.0946 22.7899 22.6595 23.2245 24.1403C23.659 25.621 24.4513 26.972 25.5312 28.0743V37.625C25.5311 37.8542 25.5895 38.0796 25.701 38.2798C25.8125 38.48 25.9734 38.6484 26.1683 38.7689C26.3632 38.8894 26.5857 38.9581 26.8147 38.9684C27.0436 38.9786 27.2714 38.9302 27.4763 38.8277L32.25 36.4391L37.0237 38.8277C37.2286 38.9302 37.4564 38.9786 37.6853 38.9684C37.9143 38.9581 38.1368 38.8894 38.3317 38.7689C38.5266 38.6484 38.6875 38.48 38.799 38.2798C38.9105 38.0796 38.9689 37.8542 38.9688 37.625V28.0743C40.6922 26.3202 41.6574 23.9591 41.6562 21.5ZM32.25 14.7812C33.5788 14.7812 34.8778 15.1753 35.9827 15.9136C37.0876 16.6518 37.9488 17.7012 38.4573 18.9288C38.9658 20.1565 39.0989 21.5075 38.8397 22.8108C38.5804 24.1141 37.9405 25.3112 37.0009 26.2509C36.0612 27.1905 34.8641 27.8304 33.5608 28.0896C32.2575 28.3489 30.9065 28.2158 29.6788 27.7073C28.4512 27.1988 27.4018 26.3376 26.6636 25.2327C25.9253 24.1278 25.5312 22.8288 25.5312 21.5C25.5312 19.7181 26.2391 18.0091 27.4991 16.7491C28.7591 15.4891 30.4681 14.7812 32.25 14.7812ZM32.8513 33.7348C32.6646 33.6414 32.4588 33.5928 32.25 33.5928C32.0412 33.5928 31.8354 33.6414 31.6487 33.7348L28.2188 35.4515V29.9975C29.4784 30.5958 30.8555 30.9062 32.25 30.9062C33.6445 30.9062 35.0216 30.5958 36.2812 29.9975V35.4515L32.8513 33.7348ZM22.8438 32.25C22.8438 32.6064 22.7022 32.9482 22.4502 33.2002C22.1982 33.4522 21.8564 33.5937 21.5 33.5937H6.71875C6.00598 33.5937 5.3224 33.3106 4.8184 32.8066C4.3144 32.3026 4.03125 31.619 4.03125 30.9062V9.40625C4.03125 8.69348 4.3144 8.0099 4.8184 7.5059C5.3224 7.0019 6.00598 6.71875 6.71875 6.71875H36.2812C36.994 6.71875 37.6776 7.0019 38.1816 7.5059C38.6856 8.0099 38.9688 8.69348 38.9688 9.40625C38.9688 9.76263 38.8272 10.1044 38.5752 10.3564C38.3232 10.6084 37.9814 10.75 37.625 10.75C37.2686 10.75 36.9268 10.6084 36.6748 10.3564C36.4228 10.1044 36.2812 9.76263 36.2812 9.40625H6.71875V30.9062H21.5C21.8564 30.9062 22.1982 31.0478 22.4502 31.2998C22.7022 31.5518 22.8438 31.8936 22.8438 32.25ZM20.1562 22.8437C20.1562 23.2001 20.0147 23.5419 19.7627 23.7939C19.5107 24.0459 19.1689 24.1875 18.8125 24.1875H12.0938C11.7374 24.1875 11.3956 24.0459 11.1436 23.7939C10.8916 23.5419 10.75 23.2001 10.75 22.8437C10.75 22.4874 10.8916 22.1456 11.1436 21.8936C11.3956 21.6416 11.7374 21.5 12.0938 21.5H18.8125C19.1689 21.5 19.5107 21.6416 19.7627 21.8936C20.0147 22.1456 20.1562 22.4874 20.1562 22.8437ZM20.1562 17.4687C20.1562 17.8251 20.0147 18.1669 19.7627 18.4189C19.5107 18.6709 19.1689 18.8125 18.8125 18.8125H12.0938C11.7374 18.8125 11.3956 18.6709 11.1436 18.4189C10.8916 18.1669 10.75 17.8251 10.75 17.4687C10.75 17.1124 10.8916 16.7706 11.1436 16.5186C11.3956 16.2666 11.7374 16.125 12.0938 16.125H18.8125C19.1689 16.125 19.5107 16.2666 19.7627 16.5186C20.0147 16.7706 20.1562 17.1124 20.1562 17.4687Z" fill="white"/>
</g>
</svg>
