<svg width="24" height="24" viewBox="0 0 24 24" fill="none" xmlns="http://www.w3.org/2000/svg">
<path d="M4.48187 4.00046C4.32996 4.00616 4.18888 4.08049 4.09836 4.2027C4.00796 4.32481 3.97794 4.48151 4.017 4.62838L5.68304 10.8729L13.0399 11.999L5.68419 13.124L4.01714 19.3703C3.98354 19.4952 3.99973 19.6284 4.06223 19.7415C4.12485 19.8548 4.22876 19.9395 4.35242 19.9777C4.47597 20.0159 4.60957 20.0047 4.72509 19.9465L19.7258 12.4461C19.8368 12.3903 19.923 12.2953 19.9677 12.1794C20.0125 12.0635 20.0125 11.9352 19.9677 11.8193C19.923 11.7034 19.8368 11.6084 19.7258 11.5525L4.72509 4.05221C4.64975 4.01471 4.56604 3.99696 4.482 4.00042L4.48187 4.00046Z" fill="white"/>
</svg>
