<svg width="46" height="46" viewBox="0 0 46 46" fill="none" xmlns="http://www.w3.org/2000/svg">
<path fill-rule="evenodd" clip-rule="evenodd" d="M23 4.3125C23 4.3125 26.801 4.3125 30.2745 5.78165C30.2745 5.78165 33.6283 7.20021 36.2141 9.78594C36.2141 9.78594 38.7998 12.3717 40.2184 15.7255C40.2184 15.7255 41.6875 19.199 41.6875 23C41.6875 23 41.6875 26.801 40.2184 30.2745C40.2184 30.2745 38.7998 33.6283 36.2141 36.2141C36.2141 36.2141 33.6283 38.7998 30.2745 40.2184C30.2745 40.2184 26.801 41.6875 23 41.6875C23 41.6875 19.199 41.6875 15.7255 40.2184C15.7255 40.2184 12.3717 38.7998 9.78594 36.2141C9.78594 36.2141 7.20021 33.6283 5.78165 30.2745C5.78165 30.2745 4.3125 26.801 4.3125 23C4.3125 23 4.3125 19.199 5.78165 15.7255C5.78165 15.7255 7.20022 12.3717 9.78594 9.78594C9.78594 9.78594 12.3717 7.20021 15.7255 5.78165C15.7255 5.78165 19.199 4.3125 23 4.3125ZM23 7.1875C23 7.1875 19.782 7.1875 16.8455 8.42953C16.8455 8.42953 14.0081 9.62966 11.8189 11.8189C11.8189 11.8189 9.62966 14.0081 8.42954 16.8455C8.42954 16.8455 7.1875 19.782 7.1875 23C7.1875 23 7.1875 26.218 8.42953 29.1545C8.42953 29.1545 9.62966 31.9919 11.8189 34.1811C11.8189 34.1811 14.0081 36.3703 16.8455 37.5705C16.8455 37.5705 19.782 38.8125 23 38.8125C23 38.8125 26.218 38.8125 29.1545 37.5705C29.1545 37.5705 31.9919 36.3703 34.1811 34.1811C34.1811 34.1811 36.3704 31.9919 37.5705 29.1545C37.5705 29.1545 38.8125 26.218 38.8125 23C38.8125 23 38.8125 19.782 37.5705 16.8455C37.5705 16.8455 36.3703 14.0081 34.1811 11.8189C34.1811 11.8189 31.9919 9.62966 29.1545 8.42953C29.1545 8.42953 26.218 7.1875 23 7.1875Z" fill="#BC29A4"/>
<path d="M18.6875 19.4062C18.6875 20.597 17.722 21.5625 16.5312 21.5625C15.3405 21.5625 14.375 20.597 14.375 19.4062C14.375 18.2155 15.3405 17.25 16.5312 17.25C17.722 17.25 18.6875 18.2155 18.6875 19.4062Z" fill="#BC29A4"/>
<path d="M31.625 19.4062C31.625 20.597 30.6595 21.5625 29.4688 21.5625C28.278 21.5625 27.3125 20.597 27.3125 19.4062C27.3125 18.2155 28.278 17.25 29.4688 17.25C30.6595 17.25 31.625 18.2155 31.625 19.4062Z" fill="#BC29A4"/>
<path d="M16.7685 26.5913C16.5113 26.1482 16.0374 25.875 15.525 25.875C15.5016 25.875 15.4783 25.8756 15.455 25.8767C15.2255 25.8879 15.0021 25.9539 14.8034 26.0693C14.3602 26.3265 14.0875 26.8001 14.0875 27.3125C14.0875 27.3358 14.0881 27.3592 14.0892 27.3825C14.1004 27.612 14.1664 27.8354 14.2817 28.0341C15.6345 30.3648 17.9699 31.7095 17.9699 31.7095C20.3052 33.0542 23 33.0542 23 33.0542C25.6948 33.0542 28.0301 31.7095 28.0301 31.7095C30.3654 30.3648 31.7182 28.0341 31.7182 28.0341C31.8455 27.8149 31.9125 27.566 31.9125 27.3125C31.9125 27.287 31.9118 27.2616 31.9105 27.2362C31.8847 26.7517 31.6163 26.3128 31.1966 26.0693C30.9774 25.942 30.7284 25.875 30.475 25.875L30.4524 25.8752C30.3355 25.877 30.2192 25.8931 30.1062 25.9231C29.7377 26.0209 29.4231 26.2611 29.2317 26.5909L29.2309 26.5923C28.264 28.2572 26.5955 29.218 26.5955 29.218C24.9262 30.1792 23 30.1792 23 30.1792C21.0738 30.1792 19.4045 29.218 19.4045 29.218C17.7354 28.2569 16.7685 26.5913 16.7685 26.5913Z" fill="#BC29A4"/>
</svg>
