<svg width="46" height="46" viewBox="0 0 46 46" fill="none" xmlns="http://www.w3.org/2000/svg">
<path fill-rule="evenodd" clip-rule="evenodd" d="M3.71707 18.0921C3.71707 18.0921 4.55914 17.25 5.75 17.25H14.375C15.1689 17.25 15.8125 17.8936 15.8125 18.6875V37.375C15.8125 38.1689 15.1689 38.8125 14.375 38.8125H5.75C5.75 38.8125 4.55914 38.8125 3.71707 37.9704C3.71707 37.9704 2.875 37.1284 2.875 35.9375V20.125C2.875 20.125 2.875 18.9341 3.71707 18.0921ZM5.75 20.125V35.9375H12.9375V20.125H5.75Z" fill="#BC29A4"/>
<path d="M36.2789 35.9375H14.375C13.5811 35.9375 12.9375 36.5811 12.9375 37.375C12.9375 38.1689 13.5811 38.8125 14.375 38.8125H36.2789C37.9098 38.8049 39.1255 37.7277 39.1255 37.7277C40.3412 36.6506 40.5442 35.039 40.5442 35.039L42.7006 17.7877C42.8219 16.8776 42.5525 15.9877 42.5525 15.9877C42.2831 15.0978 41.6697 14.399 41.6697 14.399C41.0564 13.7002 40.2089 13.3177 40.2089 13.3177C39.3614 12.9352 38.4316 12.9375 38.4316 12.9375L28.75 12.9375V10.0625C28.75 7.08534 26.6448 4.98017 26.6448 4.98017C24.5397 2.875 21.5625 2.875 21.5625 2.875C21.018 2.875 20.5203 3.18263 20.2768 3.66963L13.0897 18.0438C12.9899 18.2434 12.9375 18.4643 12.9375 18.6875L12.9375 18.6927C12.9381 18.8455 12.963 18.9972 13.0113 19.1421C13.1318 19.5038 13.3911 19.8027 13.7321 19.9732C13.9317 20.073 14.1518 20.125 14.375 20.125L14.3945 20.1249C14.9319 20.1176 15.4204 19.8111 15.6607 19.3304L22.4124 5.82695C23.6606 6.06177 24.6119 7.0131 24.6119 7.0131C25.875 8.2762 25.875 10.0625 25.875 10.0625V14.375C25.875 15.1689 26.5186 15.8125 27.3125 15.8125L38.4387 15.8125C38.746 15.8117 39.0262 15.9382 39.0262 15.9382C39.3063 16.0646 39.5091 16.2956 39.5091 16.2956C39.7118 16.5266 39.8009 16.8207 39.8009 16.8207C39.8899 17.1149 39.8478 17.4311 39.8478 17.4311L37.6917 34.6797C37.6241 35.2169 37.2188 35.5759 37.2188 35.5759C36.8136 35.935 36.2789 35.9375 36.2789 35.9375Z" fill="#BC29A4"/>
</svg>
